<svg width="35" height="32" viewBox="0 0 35 32" fill="none" xmlns="http://www.w3.org/2000/svg">
<path d="M6.61666 2.00002L6.62501 0.333345H1.04834C0.468325 0.333345 0 0.818313 0 1.41497V30.92C0 31.5167 0.468325 32 1.04668 32H33.9517C34.5317 32 35 31.5151 35 30.92V1.41497C35 0.816654 34.53 0.333288 33.9517 0.333288H28.345L28.3367 1.99996H33.3333V10.3333H1.66667V2.00002H6.61666ZM6.66664 30.3334H2.38332C1.98665 30.3334 1.66667 30.055 1.66667 29.71V25.3334H6.66664V30.3334ZM6.66664 23.6667H1.66667V18.6667H6.66664V23.6667ZM28.3334 12H33.3334V17H28.3334V12ZM28.3334 18.6667H33.3334V23.6667H28.3334V18.6667ZM28.3334 25.3334H33.3334V29.71C33.3334 30.0534 33.0117 30.3334 32.6167 30.3334H28.3334V25.3334H28.3334ZM21.6667 12H26.6667V17H21.6667V12V12ZM21.6667 18.6667H26.6667V23.6667H21.6667V18.6667V18.6667ZM21.6667 25.3334H26.6667V30.3334H21.6667V25.3334V25.3334ZM15 12H20V17H15V12ZM15 25.3334H20V30.3334H15V25.3334ZM8.33332 12H13.3333V17H8.33332V12ZM8.33332 18.6667H13.3333V23.6667H8.33332V18.6667ZM8.33332 25.3334H13.3333V30.3334H8.33332V25.3334ZM6.66664 12V17H1.66667V12H6.66664Z" fill="white"/>
</svg>
